<?xml version="1.0" encoding="utf-8"?>
<!-- Generator: Adobe Illustrator 22.1.0, SVG Export Plug-In . SVG Version: 6.00 Build 0)  -->
<svg version="1.1" id="visual" xmlns="http://www.w3.org/2000/svg" xmlns:xlink="http://www.w3.org/1999/xlink" x="0px" y="0px"
	 viewBox="0 0 900 265" style="enable-background:new 0 0 900 265;" xml:space="preserve">
<style type="text/css">
	.st0{fill:#7F5842;}
	.st1{fill:#744E39;}
	.st2{fill:#684430;}
	.st3{fill:#5D3A27;}
	.st4{fill:#52301F;}
	.st5{fill:#482717;}
	.st6{fill:#3D1D0E;}
	.st7{fill:#331400;}
</style>
<path class="st0" d="M0,113.6l11.5,0.7c11.5,0.6,34.5,2,57.5,3.1c23,1.2,46,2.2,69.2,2.4c23.1,0.1,46.5-0.5,69.6-1.7
	c23.2-1.2,46.2-2.8,69.2-3.5s46-0.3,69,0.2s46,1.1,69.2,2.1c23.1,1,46.5,2.4,69.6,1.5c23.2-0.8,46.2-3.8,69.2-5.6
	c23-1.9,46-2.5,69-2.7s46,0.2,69.2,1.7c23.1,1.5,46.5,4.1,69.6,5.8c23.2,1.7,46.2,2.3,69.2,2.7c23,0.3,46,0.3,57.5,0.3H900v98h-11.5
	c-11.5,0-34.5,0-57.5,0s-46,0-69.2,0c-23.1,0-46.5,0-69.6,0c-23.2,0-46.2,0-69.2,0s-46,0-69,0s-46,0-69.2,0c-23.1,0-46.5,0-69.6,0
	c-23.2,0-46.2,0-69.2,0s-46,0-69,0s-46,0-69.2,0c-23.1,0-46.5,0-69.6,0c-23.2,0-46.2,0-69.2,0s-46,0-57.5,0H0V113.6z"/>
<path class="st1" d="M0,125.6l11.5-0.3c11.5-0.4,34.5-1,57.5,0.1c23,1.2,46,4.2,69.2,3.7c23.1-0.5,46.5-4.5,69.6-4.3
	c23.2,0.1,46.2,4.5,69.2,6.1c23,1.7,46,0.7,69,0c23-0.6,46-1,69.2-2.3c23.1-1.3,46.5-3.7,69.6-4.7c23.2-1,46.2-0.6,69.2-0.8
	s46-0.8,69-1s46,0.2,69.2,0c23.1-0.2,46.5-0.8,69.6-0.5c23.2,0.3,46.2,1.7,69.2,3.7s46,4.6,57.5,6l11.5,1.3v86h-11.5
	c-11.5,0-34.5,0-57.5,0s-46,0-69.2,0c-23.1,0-46.5,0-69.6,0c-23.2,0-46.2,0-69.2,0s-46,0-69,0s-46,0-69.2,0c-23.1,0-46.5,0-69.6,0
	c-23.2,0-46.2,0-69.2,0s-46,0-69,0s-46,0-69.2,0c-23.1,0-46.5,0-69.6,0c-23.2,0-46.2,0-69.2,0s-46,0-57.5,0H0V125.6z"/>
<path class="st2" d="M0,142.6l11.5,0.7c11.5,0.6,34.5,2,57.5,1.3s46-3.3,69.2-4c23.1-0.7,46.5,0.7,69.6,0
	c23.2-0.7,46.2-3.3,69.2-4.8s46-1.9,69-0.4s46,4.9,69.2,6.5c23.1,1.7,46.5,1.7,69.6,1.7c23.2,0,46.2,0,69.2-0.7c23-0.6,46-2,69-2.8
	s46-1.2,69.2-0.3c23.1,0.8,46.5,2.8,69.6,2.5c23.2-0.4,46.2-3,69.2-4.5s46-1.9,57.5-2l11.5-0.2v83h-11.5c-11.5,0-34.5,0-57.5,0
	s-46,0-69.2,0c-23.1,0-46.5,0-69.6,0c-23.2,0-46.2,0-69.2,0s-46,0-69,0s-46,0-69.2,0c-23.1,0-46.5,0-69.6,0c-23.2,0-46.2,0-69.2,0
	s-46,0-69,0s-46,0-69.2,0c-23.1,0-46.5,0-69.6,0c-23.2,0-46.2,0-69.2,0s-46,0-57.5,0H0V142.6z"/>
<path class="st3" d="M0,154.6h11.5c11.5,0,34.5,0,57.5-0.5s46-1.5,69.2-1.2c23.1,0.4,46.5,2,69.6,2.5c23.2,0.5,46.2-0.1,69.2-0.8
	s46-1.3,69-1s46,1.7,69.2,2.2c23.1,0.5,46.5,0.1,69.6-1c23.2-1.2,46.2-3.2,69.2-3.9c23-0.6,46,0,69,1.2s46,2.8,69.2,3.2
	c23.1,0.3,46.5-0.7,69.6-1.2c23.2-0.5,46.2-0.5,69.2-0.5s46,0,57.5,0H900v65h-11.5c-11.5,0-34.5,0-57.5,0s-46,0-69.2,0
	c-23.1,0-46.5,0-69.6,0c-23.2,0-46.2,0-69.2,0s-46,0-69,0s-46,0-69.2,0c-23.1,0-46.5,0-69.6,0c-23.2,0-46.2,0-69.2,0s-46,0-69,0
	s-46,0-69.2,0c-23.1,0-46.5,0-69.6,0c-23.2,0-46.2,0-69.2,0s-46,0-57.5,0H0V154.6z"/>
<path class="st4" d="M0,170.6l11.5-1.2c11.5-1.1,34.5-3.5,57.5-3.8s46,1.3,69.2,0.8c23.1-0.5,46.5-3.1,69.6-3.1
	c23.2,0,46.2,2.6,69.2,4c23,1.3,46,1.3,69,1c23-0.4,46-1,69.2-1.2c23.1-0.2,46.5,0.2,69.6,0.8c23.2,0.7,46.2,1.7,69.2,2
	c23,0.4,46,0,69-1.1c23-1.2,46-3.2,69.2-4.5c23.1-1.4,46.5-2,69.6-1.5c23.2,0.5,46.2,2.1,69.2,2.1s46-1.6,57.5-2.5l11.5-0.8v57
	h-11.5c-11.5,0-34.5,0-57.5,0s-46,0-69.2,0c-23.1,0-46.5,0-69.6,0c-23.2,0-46.2,0-69.2,0s-46,0-69,0s-46,0-69.2,0
	c-23.1,0-46.5,0-69.6,0c-23.2,0-46.2,0-69.2,0s-46,0-69,0s-46,0-69.2,0c-23.1,0-46.5,0-69.6,0c-23.2,0-46.2,0-69.2,0s-46,0-57.5,0H0
	V170.6z"/>
<path class="st5" d="M0,180.6l11.5-1c11.5-1,34.5-3,57.5-3.7c23-0.6,46,0,69.2-0.1c23.1-0.2,46.5-1.2,69.6-0.5
	c23.2,0.6,46.2,3,69.2,3.3s46-1.3,69-1.2c23,0.2,46,2.2,69.2,2.4c23.1,0.1,46.5-1.5,69.6-2.2c23.2-0.7,46.2-0.3,69.2,0.5
	s46,2.2,69,3s46,1.2,69.2,1.3c23.1,0.2,46.5,0.2,69.6-1.1c23.2-1.4,46.2-4,69.2-4.2s46,2.2,57.5,3.3l11.5,1.2v37h-11.5
	c-11.5,0-34.5,0-57.5,0s-46,0-69.2,0c-23.1,0-46.5,0-69.6,0c-23.2,0-46.2,0-69.2,0s-46,0-69,0s-46,0-69.2,0c-23.1,0-46.5,0-69.6,0
	c-23.2,0-46.2,0-69.2,0s-46,0-69,0s-46,0-69.2,0c-23.1,0-46.5,0-69.6,0c-23.2,0-46.2,0-69.2,0s-46,0-57.5,0H0V180.6z"/>
<path class="st6" d="M0,184.6l11.5,0.7c11.5,0.6,34.5,2,57.5,3.5s46,3.1,69.2,3.3c23.1,0.2,46.5-1.2,69.6-1.5
	c23.2-0.3,46.2,0.3,69.2,1s46,1.3,69,1.3s46-0.6,69.2-0.8c23.1-0.2,46.5,0.2,69.6,1c23.2,0.8,46.2,2.2,69.2,2.3
	c23,0.2,46-0.8,69-1.3s46-0.5,69.2-0.3c23.1,0.1,46.5,0.5,69.6,0.1c23.2-0.3,46.2-1.3,69.2-1.6c23-0.4,46,0,57.5,0.1l11.5,0.2v26
	h-11.5c-11.5,0-34.5,0-57.5,0s-46,0-69.2,0c-23.1,0-46.5,0-69.6,0c-23.2,0-46.2,0-69.2,0s-46,0-69,0s-46,0-69.2,0
	c-23.1,0-46.5,0-69.6,0c-23.2,0-46.2,0-69.2,0s-46,0-69,0s-46,0-69.2,0c-23.1,0-46.5,0-69.6,0c-23.2,0-46.2,0-69.2,0s-46,0-57.5,0H0
	V184.6z"/>
<path class="st7" d="M0,201.6l11.5,0.7c11.5,0.6,34.5,2,57.5,2.5s46,0.1,69.2-0.4c23.1-0.5,46.5-1.1,69.6-1.3
	c23.2-0.2,46.2,0.2,69.2,0s46-0.8,69-1.5s46-1.3,69.2-0.8c23.1,0.5,46.5,2.1,69.6,3.6c23.2,1.5,46.2,2.9,69.2,3
	c23,0.2,46-0.8,69-1.1c23-0.4,46,0,69.2-1.2c23.1-1.2,46.5-3.8,69.6-5c23.2-1.2,46.2-0.8,69.2,0.7s46,4.1,57.5,5.5l11.5,1.3v11
	h-11.5c-11.5,0-34.5,0-57.5,0s-46,0-69.2,0c-23.1,0-46.5,0-69.6,0c-23.2,0-46.2,0-69.2,0s-46,0-69,0s-46,0-69.2,0
	c-23.1,0-46.5,0-69.6,0c-23.2,0-46.2,0-69.2,0s-46,0-69,0s-46,0-69.2,0c-23.1,0-46.5,0-69.6,0c-23.2,0-46.2,0-69.2,0s-46,0-57.5,0H0
	V201.6z"/>
<rect y="218.6" class="st7" width="900" height="46.4"/>
</svg>
