<svg id="visual" xmlns="http://www.w3.org/2000/svg" viewBox="0 0 900.03 169.06"><defs><style>.cls-1{fill:#7f5842;}.cls-2{fill:#744e39;}.cls-3{fill:#684430;}.cls-4{fill:#5d3a27;}.cls-5{fill:#52301f;}.cls-6{fill:#482717;}.cls-7{fill:#3d1d0e;}.cls-8{fill:#331400;}</style></defs><title>layered-waves-haikei_footer</title><path class="cls-1" d="M900,164.94l-11.5-.79c-11.5-.67-34.5-2.25-57.5-3.49s-46-2.47-69.2-2.69-46.5.57-69.6,1.93-46.2,3.17-69.2,4-46,.35-69-.21-46-1.23-69.2-2.36-46.5-2.7-69.6-1.68S369,163.91,346,166s-46,2.83-69,3.06-46-.22-69.2-1.91-46.5-4.62-69.6-6.54S92,158,69,157.53s-46-.33-57.5-.33H0L0,46.56H207.8l69.2,0H484.8l69.2,0H761.8l69.2,0h69Z" transform="translate(0.01)"/><path class="cls-2" d="M900,139.4l-11.5.3c-11.5.4-34.5,1-57.5-.09s-46-4.19-69.21-3.69-46.49,4.51-69.59,4.32S646,135.75,623,134.15s-46-.69-69,0-46,1-69.2,2.32-46.49,3.7-69.59,4.71-46.2.61-69.2.81-46,.81-69,1-46-.19-69.2,0-46.5.8-69.6.51S92,141.85,69,139.85s-46-4.59-57.51-6L0,132.56v-86H207.8l69.2,0H484.8l69.2,0H692.2l69.6,0H900Z" transform="translate(0.01)"/><path class="cls-3" d="M900,122.4l-11.5-.7c-11.5-.6-34.5-2-57.5-1.29s-46,3.31-69.2,4-46.5-.69-69.6,0-46.2,3.31-69.2,4.81a529.59,529.59,0,0,1-69,.41c-23-1.49-46-4.89-69.2-6.48s-46.5-1.7-69.6-1.69-46.2,0-69.2.71-46,2-69,2.81-46,1.21-69.2.32-46.5-2.8-69.6-2.49-46.2,3-69.2,4.51-46,1.91-57.5,2l-11.5.2v-83H207.8l69.2,0H484.8l69.2,0H692.2l69.6,0H900Z" transform="translate(0.01)"/><path class="cls-4" d="M900,110.4h-11.5c-11.5,0-34.5,0-57.5.51s-46,1.51-69.2,1.21-46.5-2-69.6-2.48-46.2.11-69.2.81-46,1.31-69,1-46-1.69-69.2-2.18-46.5-.1-69.6,1S369,113.5,346,114.2s-46,0-69-1.19-46-2.79-69.2-3.18-46.5.7-69.6,1.21-46.2.51-69.2.51H0v-65H207.8l69.2,0H484.8l69.2,0H692.2l69.6,0H900Z" transform="translate(0.01)"/><path class="cls-5" d="M900,94.4l-11.5,1.2C877,96.7,854,99.11,831,99.41s-46-1.29-69.2-.79-46.5,3.11-69.6,3.12-46.2-2.59-69.2-4-46-1.29-69-1-46,1-69.2,1.22-46.5-.2-69.6-.79S369,95.5,346,95.2s-46,0-69,1.11-46,3.21-69.2,4.52-46.5,2-69.6,1.51S92,100.25,69,100.25s-46,1.61-57.5,2.51l-11.5.8v-57H207.8l69.2,0H484.8l69.2,0H692.2l69.6,0H900Z" transform="translate(0.01)"/><path class="cls-6" d="M900,84.4l-11.5,1c-11.5,1-34.5,3-57.5,3.71s-46,0-69.2.11-46.5,1.21-69.6.52-46.2-3-69.2-3.29-46,1.31-69,1.21-46-2.19-69.2-2.38-46.5,1.5-69.6,2.21S369,87.8,346,87s-46-2.19-69-3-46-1.19-69.2-1.28-46.5-.2-69.6,1.11S92,87.85,69,88.05s-46-2.19-57.5-3.29L0,83.56v-37H207.8l69.2,0H484.8l69.2,0H692.2l69.6,0H900Z" transform="translate(0.01)"/><path class="cls-7" d="M900,80.4l-11.5-.7c-11.5-.6-34.5-2-57.5-3.49s-46-3.09-69.2-3.29-46.5,1.21-69.6,1.52-46.2-.29-69.2-1-46-1.29-69-1.29-46,.61-69.2.82-46.5-.2-69.6-1S369,69.8,346,69.7s-46,.81-69,1.31-46,.51-69.2.32-46.5-.5-69.6-.09S92,72.55,69,72.85s-46,0-57.5-.09L0,72.56v-26H207.8l69.2,0H484.8l69.2,0H692.2l69.6,0H900Z" transform="translate(0.01)"/><path class="cls-8" d="M900,63.4l-11.5-.7c-11.5-.6-34.5-2-57.5-2.49s-46-.09-69.2.41-46.5,1.11-69.6,1.32S646,61.75,623,62s-46,.81-69,1.51-46,1.31-69.2.82-46.5-2.1-69.6-3.59S369,57.8,346,57.7s-46,.81-69,1.11-46,0-69.2,1.22-46.5,3.8-69.6,5A591.35,591.35,0,0,1,69,64.35c-23-1.5-46-4.09-57.5-5.49L0,57.56v-11H207.8l69.2,0H484.8l69.2,0H692.2l69.6,0H900Z" transform="translate(0.01)"/><rect class="cls-8" y="0.08" width="900" height="46.4"/></svg>